<svg id="plexico-icon-bucket-my-media-20" version="1.1" xmlns="http://www.w3.org/2000/svg" xmlns:xlink="http://www.w3.org/1999/xlink" x="0px" y="0px" viewBox="0 0 24 24" style="enable-background:new 0 0 24 24;" xml:space="preserve" fill="coral">
<g id="Outline_Icons">
	<g>
		<path d="M20.5,22H3c-1.7,0-3-1.3-3-3V2.5C0,2.2,0.2,2,0.5,2h7C7.8,2,8,2.2,8,2.5V4h12.5C20.8,4,21,4.2,21,4.5V6h2.5
			C23.8,6,24,6.2,24,6.5v12C24,20.4,22.4,22,20.5,22z M5.2,21h15.3c1.4,0,2.5-1.1,2.5-2.5V7H6v12C6,19.8,5.7,20.5,5.2,21z M1,3v16
			c0,1.1,0.9,2,2,2s2-0.9,2-2V6.5C5,6.2,5.2,6,5.5,6H20V5H7.5C7.2,5,7,4.8,7,4.5V3H1z"></path>
		<path d="M11.5,18c-0.1,0-0.2,0-0.2-0.1c-0.2-0.1-0.3-0.3-0.3-0.4v-7c0-0.2,0.1-0.3,0.3-0.4c0.2-0.1,0.3-0.1,0.5,0l6,3.5
			c0.2,0.1,0.2,0.3,0.2,0.4s-0.1,0.3-0.2,0.4l-6,3.5C11.7,18,11.6,18,11.5,18z M12,11.4v5.3l4.5-2.6L12,11.4z"></path>
	</g>
</g>
</svg>