<svg id="plexico-icon-plex-pass-perks-21" version="1.1" xmlns="http://www.w3.org/2000/svg" xmlns:xlink="http://www.w3.org/1999/xlink" x="0px" y="0px" viewBox="0 0 32 32" style="enable-background:new 0 0 32 32;" xml:space="preserve" fill="coral">
<title>vip-discount</title>
<path d="M31.3,12.7c0.4,0,0.7-0.3,0.7-0.7V6c0-0.4-0.3-0.7-0.7-0.7H0.7C0.3,5.3,0,5.6,0,6v6c0,0.4,0.3,0.7,0.7,0.7
	C2.5,12.7,4,14.2,4,16s-1.5,3.3-3.3,3.3C0.3,19.3,0,19.6,0,20v6c0,0.4,0.3,0.7,0.7,0.7h30.7c0.4,0,0.7-0.3,0.7-0.7v-6
	c0-0.4-0.3-0.7-0.7-0.7c-1.8,0-3.3-1.5-3.3-3.3S29.5,12.7,31.3,12.7z M30.7,20.6v4.7H1.3v-4.7c2.3-0.3,4-2.3,4-4.6s-1.7-4.3-4-4.6
	V6.7h29.3v4.7c-2.3,0.3-4,2.3-4,4.6S28.4,20.3,30.7,20.6z"></path>
<path d="M24,8h1.3v1.3H24V8z"></path>
<path d="M24,10.7h1.3V12H24V10.7z"></path>
<path d="M24,13.3h1.3v1.3H24V13.3z"></path>
<path d="M24,17.3h1.3v1.3H24V17.3z"></path>
<path d="M24,20h1.3v1.3H24V20z"></path>
<path d="M24,22.7h1.3V24H24V22.7z"></path>
<path d="M20.5,10.2c-0.3-0.3-0.7-0.3-0.9,0L8.9,20.9c-0.3,0.3-0.3,0.7,0,0.9C9,21.9,9.2,22,9.3,22s0.3-0.1,0.5-0.2l10.7-10.7
	C20.7,10.9,20.7,10.5,20.5,10.2z"></path>
<path d="M10.7,14.7c1.5,0,2.7-1.2,2.7-2.7s-1.2-2.7-2.7-2.7S8,10.5,8,12S9.2,14.7,10.7,14.7z M10.7,10.7c0.7,0,1.3,0.6,1.3,1.3
	s-0.6,1.3-1.3,1.3S9.3,12.7,9.3,12S9.9,10.7,10.7,10.7z"></path>
<path d="M18.7,17.3c-1.5,0-2.7,1.2-2.7,2.7s1.2,2.7,2.7,2.7s2.7-1.2,2.7-2.7S20.1,17.3,18.7,17.3z M18.7,21.3
	c-0.7,0-1.3-0.6-1.3-1.3s0.6-1.3,1.3-1.3S20,19.3,20,20S19.4,21.3,18.7,21.3z"></path>
</svg>