<svg id="plexico-icon-bucket-live-tv-18" version="1.1" xmlns="http://www.w3.org/2000/svg" xmlns:xlink="http://www.w3.org/1999/xlink" x="0px" y="0px" viewBox="0 0 24 24" style="enable-background:new 0 0 24 24;" xml:space="preserve" fill="coral">
<g>
	<path d="M22.5,6h-9.3l5.1-5.1c0.2-0.2,0.2-0.5,0-0.7s-0.5-0.2-0.7,0L12,5.8L6.4,0.1C6.2,0,5.8,0,5.6,0.1s-0.2,0.5,0,0.7L10.8,6H1.5
		C1.2,6,1,6.2,1,6.5v15C1,21.8,1.2,22,1.5,22H3v1.5C3,23.8,3.2,24,3.5,24S4,23.8,4,23.5V22h16v1.5c0,0.3,0.2,0.5,0.5,0.5
		s0.5-0.2,0.5-0.5V22h1.5c0.3,0,0.5-0.2,0.5-0.5v-15C23,6.2,22.8,6,22.5,6z M22,21H2V7h20V21z"></path>
	<path d="M4,11.5v5C4,18.4,5.6,20,7.5,20h9c1.9,0,3.5-1.6,3.5-3.5v-5C20,9.6,18.4,8,16.5,8h-9C5.6,8,4,9.6,4,11.5z M19,11.5v5
		c0,1.4-1.1,2.5-2.5,2.5h-9C6.1,19,5,17.9,5,16.5v-5C5,10.1,6.1,9,7.5,9h9C17.9,9,19,10.1,19,11.5z"></path>
	<path d="M6.5,13c0,0.3,0.2,0.5,0.5,0.5s0.5-0.2,0.5-0.5c0-0.8,0.7-1.5,1.5-1.5c0.3,0,0.5-0.2,0.5-0.5S9.3,10.5,9,10.5
		C7.6,10.5,6.5,11.6,6.5,13z"></path>
</g>
</svg>