<svg id="plexico-icon-bucket-stream-movies-19" version="1.1" xmlns="http://www.w3.org/2000/svg" xmlns:xlink="http://www.w3.org/1999/xlink" x="0px" y="0px" viewBox="0 0 24 24" style="enable-background:new 0 0 24 24;" xml:space="preserve" fill="coral">
<g>
	<path d="M22.8,5c0-1.6-1.3-3-3-3H7.6c-0.8,0-1.5-0.7-1.5-1.5c0-0.3-0.2-0.5-0.5-0.5S5.1,0.3,5.1,0.6c0,1.4,1.1,2.5,2.5,2.5h12.3
		c1.1,0,2,0.9,2,2c0,1.1-0.9,2-2,2h-2.2c0,0,0,0,0,0c-1.8-1.7-4.1-2.7-6.7-2.7c-5.4,0-9.8,4.4-9.8,9.8c0,5.4,4.4,9.8,9.8,9.8
		c5.4,0,9.8-4.4,9.8-9.8c0-2.3-0.8-4.4-2.2-6.1h1.3C21.5,8,22.8,6.7,22.8,5z M11,22.9c-4.9,0-8.8-3.9-8.8-8.8c0-4.9,3.9-8.8,8.8-8.8
		s8.8,3.9,8.8,8.8C19.8,19,15.8,22.9,11,22.9z"></path>
	<path d="M11,11.9c-1.2,0-2.2,1-2.2,2.2c0,1.2,1,2.2,2.2,2.2s2.2-1,2.2-2.2C13.2,12.9,12.2,11.9,11,11.9z M11,15.4
		c-0.7,0-1.3-0.6-1.3-1.2s0.6-1.3,1.3-1.3s1.3,0.6,1.3,1.3S11.6,15.4,11,15.4z"></path>
	<path d="M13,17.7c-0.1-0.3-0.4-0.4-0.6-0.3c-0.9,0.4-1.8,0.4-2.7,0c-0.1,0-0.1-0.1-0.2-0.1c-0.2,0-0.4,0.1-0.5,0.3l-1.1,2.7
		c-0.1,0.1-0.1,0.3,0,0.4C7.9,20.8,8,20.9,8.1,21c0.8,0.3,1.8,0.5,3,0.5c0.8,0,1.7-0.1,2.6-0.5c0.2-0.1,0.4-0.3,0.4-0.5
		c0-0.1,0-0.2-0.1-0.3L13,17.7z M9,20.2l0.7-1.7c0.8,0.3,1.7,0.3,2.6,0l0.7,1.8C11.5,20.7,10.1,20.5,9,20.2z"></path>
	<path d="M14.4,12.1c-0.1,0-0.2,0.1-0.3,0.3c-0.1,0.1-0.1,0.3,0,0.4c0.3,0.7,0.5,1.7-0.1,2.7c-0.1,0.1-0.1,0.3,0,0.4
		c0,0.1,0.2,0.2,0.3,0.3l2.9,1.1c0.1,0,0.1,0,0.2,0c0.1,0,0.1,0,0.2,0c0.1-0.1,0.2-0.2,0.3-0.3c0.5-1.4,0.9-3.5,0-5.6
		c-0.1-0.2-0.3-0.4-0.5-0.4c-0.1,0-0.1,0-0.2,0.1L14.4,12.1z M17,16.1l-1.9-0.7c0.3-0.8,0.3-1.7,0.1-2.6l1.9-0.7
		C17.6,13.6,17.4,15,17,16.1z"></path>
	<path d="M9.3,10.7c0,0.1,0.1,0.2,0.3,0.3C9.7,11,9.8,11,9.9,11c0.7-0.3,1.7-0.5,2.7,0.1c0.1,0,0.2,0.1,0.3,0.1c0.1,0,0.1,0,0.2,0
		c0.1,0,0.2-0.2,0.3-0.3l1.1-2.9c0.1-0.2,0-0.3-0.1-0.5c-0.1-0.1-0.2-0.2-0.3-0.2c-1.4-0.5-3.5-0.9-5.6,0C8.3,7.3,8.1,7.5,8.1,7.7
		c0,0.1,0,0.1,0.1,0.2L9.3,10.7z M13.3,8l-0.7,1.9c-0.4-0.2-0.9-0.3-1.3-0.3c-0.4,0-0.8,0.1-1.2,0.2L9.3,8C10.8,7.5,12.2,7.7,13.3,8
		z"></path>
	<path d="M7.8,15.5c-0.3-0.7-0.5-1.7,0.1-2.7c0-0.1,0.1-0.2,0.1-0.3v0c0-0.2-0.1-0.4-0.3-0.5L4.7,11c-0.1,0-0.3,0-0.4,0
		c-0.1,0.1-0.2,0.2-0.3,0.3c-0.5,1.4-0.9,3.5,0,5.6c0.1,0.2,0.3,0.4,0.5,0.4c0,0,0,0,0,0c0.1,0,0.1,0,0.2-0.1l2.7-1.1
		c0.1,0,0.2-0.1,0.3-0.3C7.8,15.7,7.8,15.6,7.8,15.5z M6.7,15.4l-1.9,0.7c-0.5-1.5-0.3-2.9,0-4l1.9,0.7C6.5,13.6,6.4,14.5,6.7,15.4z
		"></path>
</g>
</svg>